<svg xmlns:dc="http://purl.org/dc/elements/1.1/" xmlns:cc="http://creativecommons.org/ns#" xmlns:rdf="http://www.w3.org/1999/02/22-rdf-syntax-ns#" xmlns:svg="http://www.w3.org/2000/svg" xmlns="http://www.w3.org/2000/svg" xmlns:xlink="http://www.w3.org/1999/xlink" id="svg523390" version="1.1" viewBox="208.62 359.4 606.77 49.21">
  <metadata id="metadata523396">
    <rdf:rdf>
      <cc:work rdf:about="">
        <dc:format>image/svg+xml</dc:format>
        <dc:type rdf:resource="http://purl.org/dc/dcmitype/StillImage"/>
      </cc:work>
    </rdf:rdf>
  </metadata>
  <defs id="defs523394"/>
  <linearGradient spreadMethod="pad" y2="30%" x2="-10%" y1="120%" x1="30%" id="3d_gradient2-logo-f90bdfd0-3929-4313-8d9e-9d37a2843d6f">
    <stop id="stop523371" stop-opacity="1" stop-color="#ffffff" offset="0%"/>
    <stop id="stop523373" stop-opacity="1" stop-color="#000000" offset="100%"/>
  </linearGradient>
  <linearGradient gradientTransform="rotate(-30)" spreadMethod="pad" y2="30%" x2="-10%" y1="120%" x1="30%" id="3d_gradient3-logo-f90bdfd0-3929-4313-8d9e-9d37a2843d6f">
    <stop id="stop523376" stop-opacity="1" stop-color="#ffffff" offset="0%"/>
    <stop id="stop523378" stop-opacity="1" stop-color="#cccccc" offset="50%"/>
    <stop id="stop523380" stop-opacity="1" stop-color="#000000" offset="100%"/>
  </linearGradient>
  <g id="logo-group">
    <image xlink:href="" id="container" x="272" y="144" width="480" height="480" transform="translate(0 0)" style="display: none;"/>
    <g id="logo-center" transform="translate(0 0)">
      <image xlink:href="" id="icon_container" x="0" y="0" style="display: none;"/>
      <g id="slogan" style="font-style:normal;font-weight:300;font-size:32px;line-height:1;font-family:Comfortaa;font-variant-ligatures:none;text-align:center;text-anchor:middle" transform="translate(0 0)"/>
      <g id="title" style="font-style:normal;font-weight:700;font-size:72px;line-height:1;font-family:'Meedori Sans';font-variant-ligatures:none;text-align:center;text-anchor:middle" transform="translate(0 0)">
        <path id="path523399" style="font-style:normal;font-weight:700;font-size:72px;line-height:1;font-family:'Meedori Sans';font-variant-ligatures:none;text-align:center;text-anchor:middle" d="m 242.31612,-54 q 5.616,0.144 10.512,2.376 4.89601,2.16 8.568,5.832 3.672,3.672 5.76,8.568 2.088,4.824 2.088,10.224 0,5.616 -2.23199,10.584 -2.23201,4.896 -5.97601,8.568 -3.744,3.6 -8.64,5.688 -4.824,2.088 -10.08,2.16 h -18 v -9.072 h 19.08 q 3.528,0.144 6.552,-1.368 3.096,-1.512 5.4,-4.032 2.304,-2.592 3.6,-5.832 1.368,-3.312 1.368,-6.696 0,-3.384 -1.368,-6.624 -1.296,-3.312 -3.6,-5.832 -2.232,-2.52 -5.328,-4.032 -3.096,-1.512 -6.624,-1.44 h -19.08 V -54 h 18 z" stroke-width="0" stroke-linejoin="miter" stroke-miterlimit="2" fill="#464646" stroke="#464646" transform="translate(0 304.53076) translate(208.6173158499999 54.932) scale(0.91) translate(-224.31612 54)"/>
        <path id="path523401" style="font-style:normal;font-weight:700;font-size:72px;line-height:1;font-family:'Meedori Sans';font-variant-ligatures:none;text-align:center;text-anchor:middle" d="M 299.36712,-54.072 326.43912,0 h -9.936 l -6.12,-10.944 H 288.42313 L 283.31112,0 h -10.944 z m -5.976,33.984 h 12.96001 l -6.98401,-13.896 z" stroke-width="0" stroke-linejoin="miter" stroke-miterlimit="2" fill="#464646" stroke="#464646" transform="translate(0 304.53076) translate(261.4437258499999 54.866479999999996) scale(0.91) translate(-272.36712 54.072)"/>
        <path id="path523403" style="font-style:normal;font-weight:700;font-size:72px;line-height:1;font-family:'Meedori Sans';font-variant-ligatures:none;text-align:center;text-anchor:middle" d="M 378.43887,-54.072 356.83888,-27.72 378.43887,0 h -11.88 l -21.6,-27.72 21.6,-26.352 z M 336.31887,0 v -54.072 h 8.64 V 0 Z" stroke-width="0" stroke-linejoin="miter" stroke-miterlimit="2" fill="#464646" stroke="#464646" transform="translate(0 304.53076) translate(328.73981834999995 54.866479999999996) scale(0.91) translate(-336.31887 54.072)"/>
        <path id="path523405" style="font-style:normal;font-weight:700;font-size:72px;line-height:1;font-family:'Meedori Sans';font-variant-ligatures:none;text-align:center;text-anchor:middle" d="m 417.47075,-54 q 5.4,0 10.224,2.088 4.896,2.088 8.64,5.76 3.744,3.6 5.904,8.568 2.232,4.896 2.232,10.584 0,5.4 -2.088,10.296 -2.088,4.824 -5.76,8.568 -3.6,3.744 -8.568,5.976 -4.896,2.16 -10.584,2.16 -5.4,0 -10.296,-2.088 -4.896,-2.088 -8.64,-5.76 -3.672,-3.672 -5.904,-8.568 -2.16,-4.968 -2.16,-10.584 0,-5.472 2.088,-10.296 2.088,-4.896 5.688,-8.568 3.672,-3.672 8.568,-5.832 4.968,-2.16 10.656,-2.304 z m 0,45 q 3.528,0 6.768,-1.368 3.312,-1.44 5.76,-3.888 2.52,-2.448 3.96,-5.688 1.512,-3.312 1.512,-7.056 0,-3.6 -1.44,-6.84 -1.368,-3.312 -3.816,-5.76 -2.448,-2.52 -5.76,-3.96 -3.24,-1.512 -6.984,-1.512 -3.6,0 -6.912,1.44 -3.24,1.368 -5.76,3.816 -2.448,2.448 -3.96,5.76 -1.44,3.312 -1.44,7.056 0,3.672 1.368,6.912 1.44,3.168 3.888,5.616 2.448,2.448 5.688,3.888 3.312,1.44 7.128,1.584 z" stroke-width="0" stroke-linejoin="miter" stroke-miterlimit="2" fill="#464646" stroke="#464646" transform="translate(0 304.53076) translate(387.11802915 54.932) scale(0.91) translate(-390.47075 54)"/>
        <path id="path523407" style="font-style:normal;font-weight:700;font-size:72px;line-height:1;font-family:'Meedori Sans';font-variant-ligatures:none;text-align:center;text-anchor:middle" d="m 497.66525,-45 h -18 V 0 h -9 v -45 h -18 v -9 h 45 z" stroke-width="0" stroke-linejoin="miter" stroke-miterlimit="2" fill="#464646" stroke="#464646" transform="translate(0 304.53076) translate(452.81502415 54.932) scale(0.91) translate(-452.66525 54)"/>
        <path id="path523409" style="font-style:normal;font-weight:700;font-size:72px;line-height:1;font-family:'Meedori Sans';font-variant-ligatures:none;text-align:center;text-anchor:middle" d="M 519.164,-54.072 546.236,0 H 536.3 l -6.12,-10.944 H 508.22 L 503.108,0 h -10.944 z m -5.976,33.984 h 12.96 l -6.984,-13.896 z" stroke-width="0" stroke-linejoin="miter" stroke-miterlimit="2" fill="#464646" stroke="#464646" transform="translate(0 304.53076) translate(497.85888665 54.866479999999996) scale(0.91) translate(-492.164 54.072)"/>
        <path id="path523411" style="font-style:normal;font-weight:700;font-size:72px;line-height:1;font-family:'Meedori Sans';font-variant-ligatures:none;text-align:center;text-anchor:middle" d="m 608.40913,-53.928 h 9 v 0 V 0 0 h -9 v -22.032 h -31.968 v -8.928 h 31.968 v -22.968 z" stroke-width="0" stroke-linejoin="miter" stroke-miterlimit="2" fill="#464646" stroke="#464646" transform="translate(0 304.53076) translate(583.6510749500001 54.99752) scale(0.91) translate(-576.44113 53.928)"/>
        <path id="path523413" style="font-style:normal;font-weight:700;font-size:72px;line-height:1;font-family:'Meedori Sans';font-variant-ligatures:none;text-align:center;text-anchor:middle" d="m 656.67387,-54 q 5.40001,0 10.224,2.088 4.896,2.088 8.64,5.76 3.74401,3.6 5.904,8.568 2.232,4.896 2.232,10.584 0,5.4 -2.088,10.296 -2.08799,4.824 -5.76,8.568 -3.6,3.744 -8.56799,5.976 -4.896,2.16 -10.58401,2.16 -5.4,0 -10.29599,-2.088 -4.89601,-2.088 -8.64,-5.76 -3.67201,-3.672 -5.904,-8.568 -2.16001,-4.968 -2.16001,-10.584 0,-5.472 2.08801,-10.296 2.08799,-4.896 5.688,-8.568 3.672,-3.672 8.56799,-5.832 4.968,-2.16 10.656,-2.304 z m 0,45 q 3.528,0 6.768,-1.368 3.312,-1.44 5.76,-3.888 2.52,-2.448 3.96,-5.688 1.512,-3.312 1.512,-7.056 0,-3.6 -1.44,-6.84 -1.368,-3.312 -3.816,-5.76 -2.448,-2.52 -5.76,-3.96 -3.24,-1.512 -6.984,-1.512 -3.59999,0 -6.91199,1.44 -3.24,1.368 -5.76,3.816 -2.44801,2.448 -3.96001,5.76 -1.44,3.312 -1.44,7.056 0,3.672 1.368,6.912 1.44001,3.168 3.88801,5.616 2.448,2.448 5.688,3.888 3.312,1.44 7.12799,1.584 z" stroke-width="0" stroke-linejoin="miter" stroke-miterlimit="2" fill="#464646" stroke="#464646" transform="translate(0 304.53076) translate(641.19286835 54.932) scale(0.91) translate(-629.67387 54)"/>
        <path id="path523415" style="font-style:normal;font-weight:700;font-size:72px;line-height:1;font-family:'Meedori Sans';font-variant-ligatures:none;text-align:center;text-anchor:middle" d="m 722.97238,-32.76 27.07199,-21.312 V 0 h -9 v -35.496 l -18.07199,14.256 -18,-14.256 V 0 h -9 v -54.072 z" stroke-width="0" stroke-linejoin="miter" stroke-miterlimit="2" fill="#464646" stroke="#464646" transform="translate(0 304.53076) translate(710.6245124500001 54.866479999999996) scale(0.91) translate(-695.97238 54.072)"/>
        <path id="path523417" style="font-style:normal;font-weight:700;font-size:72px;line-height:1;font-family:'Meedori Sans';font-variant-ligatures:none;text-align:center;text-anchor:middle" d="m 801.09125,-45 h -27.072 v 13.464 h 23.04 v 9 h -23.04 V -9 h 27.072 v 9 h -36.072 v -54 h 36.072 v 9 z" stroke-width="0" stroke-linejoin="miter" stroke-miterlimit="2" fill="#464646" stroke="#464646" transform="translate(0 304.53076) translate(782.5571641500002 54.932) scale(0.91) translate(-765.01925 54)"/>
      </g>
      <image xlink:href="" id="icon" x="0" y="0" style="display: none;"/>
    </g>
  </g>
</svg>